<svg width="131" height="35" viewBox="0 0 131 35" fill="none" xmlns="http://www.w3.org/2000/svg">
<path fill-rule="evenodd" clip-rule="evenodd" d="M17.4484 29.483C17.1308 22.8234 15.1192 11.5379 5.92008 3.65956L6.37602 9.48118C11.7384 14.9415 15.1508 21.8492 16.6784 30.1547H16.6526C15.3852 24.2342 11.8036 14.2125 1.74491 7.79083L2.04744 13.4784C8.46432 17.8663 12.904 23.0908 15.9221 30.8272H15.8956C13.8632 26.1425 9.321 18.6498 0 14.2806L0.341956 20.3603C8.73602 23.693 11.4638 26.5396 17.3351 34.9907L17.3416 35H17.6584L17.6649 34.99C18.2535 34.1226 18.8291 33.3268 19.3718 32.5756H19.384V32.5577C24.1556 25.9503 27.1264 23.351 34.658 20.3603L35 14.2806C25.679 18.6498 21.1361 26.1425 19.1044 30.8272H19.0786C22.0967 23.0908 26.5364 17.8663 32.9526 13.4784L33.2551 7.79083C23.1957 14.2125 19.6155 24.2342 18.3474 30.1547H18.3216C19.8492 21.8492 23.2616 14.9415 28.624 9.48118L29.0806 3.65956C19.8801 11.5379 17.8699 22.8234 17.5516 29.483H17.4484V29.483Z"/>
<path fill-rule="evenodd" clip-rule="evenodd" d="M22.501 5.00082C22.501 7.76002 20.26 10.0002 17.5 10.0002C14.7407 10.0002 12.5004 7.76002 12.5004 5.00082C12.5004 2.24019 14.7407 0 17.5 0C20.26 0 22.501 2.24019 22.501 5.00082"/>
<path d="M51.9336 22.3213C51.5 22.9424 50.8936 23.4082 50.1143 23.7188C49.3408 24.0234 48.4385 24.1758 47.4072 24.1758C46.3643 24.1758 45.4385 23.9326 44.6299 23.4463C43.8213 22.9541 43.1943 22.2568 42.749 21.3545C42.3096 20.4521 42.084 19.4062 42.0723 18.2168V17.1006C42.0723 15.1729 42.5205 13.6787 43.417 12.6182C44.3193 11.5576 45.585 11.0273 47.2139 11.0273C48.5498 11.0273 49.625 11.3701 50.4395 12.0557C51.2539 12.7354 51.752 13.7021 51.9336 14.9561H50.2461C49.9297 13.2627 48.9219 12.416 47.2227 12.416C46.0918 12.416 45.2334 12.8145 44.6475 13.6113C44.0674 14.4023 43.7744 15.5508 43.7686 17.0566V18.1025C43.7686 19.5381 44.0967 20.6807 44.7529 21.5303C45.4092 22.374 46.2969 22.7959 47.416 22.7959C48.0488 22.7959 48.6025 22.7256 49.0771 22.585C49.5518 22.4443 49.9443 22.207 50.2549 21.873V18.999H47.293V17.6279H51.9336V22.3213ZM63.7637 11.2031V19.9043C63.7578 21.1113 63.377 22.0986 62.6211 22.8662C61.8711 23.6338 60.8516 24.0645 59.5625 24.1582L59.1143 24.1758C57.7139 24.1758 56.5977 23.7979 55.7656 23.042C54.9336 22.2861 54.5117 21.2461 54.5 19.9219V11.2031H56.1699V19.8691C56.1699 20.7949 56.4248 21.5156 56.9346 22.0312C57.4443 22.541 58.1709 22.7959 59.1143 22.7959C60.0693 22.7959 60.7988 22.541 61.3027 22.0312C61.8125 21.5215 62.0674 20.8037 62.0674 19.8779V11.2031H63.7637ZM76.2617 24H74.5654L68.123 14.1387V24H66.4268V11.2031H68.123L74.583 21.1084V11.2031H76.2617V24ZM81.0693 24H79.3818V11.2031H81.0693V24ZM98.4629 24H96.7666V18.085H90.3154V24H88.6279V11.2031H90.3154V16.7051H96.7666V11.2031H98.4629V24ZM103.64 11.2031L107.823 21.6445L112.007 11.2031H114.195V24H112.508V19.0166L112.666 13.6377L108.465 24H107.173L102.98 13.6641L103.147 19.0166V24H101.46V11.2031H103.64ZM120.945 18.2959C119.498 17.8799 118.443 17.3701 117.781 16.7666C117.125 16.1572 116.797 15.4072 116.797 14.5166C116.797 13.5088 117.198 12.6768 118.001 12.0205C118.81 11.3584 119.858 11.0273 121.147 11.0273C122.026 11.0273 122.809 11.1973 123.494 11.5371C124.186 11.877 124.719 12.3457 125.094 12.9434C125.475 13.541 125.665 14.1943 125.665 14.9033H123.969C123.969 14.1299 123.723 13.5234 123.23 13.084C122.738 12.6387 122.044 12.416 121.147 12.416C120.315 12.416 119.665 12.6006 119.196 12.9697C118.733 13.333 118.502 13.8398 118.502 14.4902C118.502 15.0117 118.722 15.4541 119.161 15.8174C119.606 16.1748 120.359 16.5029 121.42 16.8018C122.486 17.1006 123.318 17.4316 123.916 17.7949C124.52 18.1523 124.965 18.5713 125.252 19.0518C125.545 19.5322 125.691 20.0977 125.691 20.748C125.691 21.7852 125.287 22.6172 124.479 23.2441C123.67 23.8652 122.589 24.1758 121.235 24.1758C120.356 24.1758 119.536 24.0088 118.774 23.6748C118.013 23.335 117.424 22.8721 117.008 22.2861C116.598 21.7002 116.393 21.0352 116.393 20.291H118.089C118.089 21.0645 118.373 21.6768 118.941 22.1279C119.516 22.5732 120.28 22.7959 121.235 22.7959C122.126 22.7959 122.809 22.6143 123.283 22.251C123.758 21.8877 123.995 21.3926 123.995 20.7656C123.995 20.1387 123.775 19.6553 123.336 19.3154C122.896 18.9697 122.1 18.6299 120.945 18.2959Z"/>
</svg>
